<svg xmlns="http://www.w3.org/2000/svg" xmlns:xlink="http://www.w3.org/1999/xlink" xmlns:svgjs="http://svgjs.com/svgjs" id="SvgjsSvg1012" width="288" height="288" version="1.1"><defs id="SvgjsDefs1013"/><g id="SvgjsG1014"><svg xmlns="http://www.w3.org/2000/svg" enable-background="new 0 0 24 24" viewBox="0 0 24 24" width="288" height="288"><path d="M23.002 21.584h.227l-.435-.658 0 0c.266 0 .407-.169.409-.376 0-.008 0-.017-.001-.025 0-.282-.17-.417-.519-.417h-.564v1.476h.212v-.643h.261L23.002 21.584zM22.577 20.774h-.246v-.499h.312c.161 0 .345.026.345.237 0 .242-.186.262-.412.262M17.291 19.073h-3.007v-4.709c0-1.123-.02-2.568-1.564-2.568-1.566 0-1.806 1.223-1.806 2.487v4.79H7.908V9.389h2.887v1.323h.04c.589-1.006 1.683-1.607 2.848-1.564 3.048 0 3.609 2.005 3.609 4.612L17.291 19.073zM4.515 8.065c-.964 0-1.745-.781-1.745-1.745 0-.964.781-1.745 1.745-1.745.964 0 1.745.781 1.745 1.745C6.26 7.284 5.479 8.065 4.515 8.065L4.515 8.065M6.018 19.073h-3.01V9.389h3.01V19.073zM18.79 1.783H1.497C.68 1.774.01 2.429 0 3.246V20.61c.01.818.68 1.473 1.497 1.464H18.79c.819.01 1.492-.645 1.503-1.464V3.245c-.012-.819-.685-1.474-1.503-1.463" fill="#eeeeef" class="color000 svgShape"/><path d="M22.603,19.451c-0.764,0.007-1.378,0.633-1.37,1.397c0.007,0.764,0.633,1.378,1.397,1.37   c0.764-0.007,1.378-0.633,1.37-1.397c-0.007-0.754-0.617-1.363-1.37-1.37H22.603 M22.635,22.059   c-0.67,0.011-1.254-0.522-1.265-1.192c-0.011-0.67,0.523-1.222,1.193-1.233c0.67-0.011,1.222,0.523,1.233,1.193   c0,0.007,0,0.013,0,0.02C23.81,21.502,23.29,22.045,22.635,22.059h-0.031" fill="#eeeeef" class="color000 svgShape"/></svg></g></svg>