<svg id="SvgjsSvg1001" width="288" height="288" xmlns="http://www.w3.org/2000/svg" version="1.1" xmlns:xlink="http://www.w3.org/1999/xlink" xmlns:svgjs="http://svgjs.com/svgjs"><defs id="SvgjsDefs1002"></defs><g id="SvgjsG1008"><svg xmlns="http://www.w3.org/2000/svg" enable-background="new 0 0 24 24" viewBox="0 0 24 24" width="288" height="288"><path fill-rule="evenodd" d="M12,0.296c-6.627,0-12,5.372-12,12c0,5.302,3.438,9.8,8.206,11.387   c0.6,0.111,0.82-0.26,0.82-0.577c0-0.286-0.011-1.231-0.016-2.234c-3.338,0.726-4.043-1.416-4.043-1.416   C4.421,18.069,3.635,17.7,3.635,17.7c-1.089-0.745,0.082-0.729,0.082-0.729c1.205,0.085,1.839,1.237,1.839,1.237   c1.07,1.834,2.807,1.304,3.492,0.997C9.156,18.429,9.467,17.9,9.81,17.6c-2.665-0.303-5.467-1.332-5.467-5.93   c0-1.31,0.469-2.381,1.237-3.221C5.455,8.146,5.044,6.926,5.696,5.273c0,0,1.008-0.322,3.301,1.23   C9.954,6.237,10.98,6.104,12,6.099c1.02,0.005,2.047,0.138,3.006,0.404c2.29-1.553,3.297-1.23,3.297-1.23   c0.653,1.653,0.242,2.873,0.118,3.176c0.769,0.84,1.235,1.911,1.235,3.221c0,4.609-2.807,5.624-5.479,5.921   c0.43,0.372,0.814,1.103,0.814,2.222c0,1.606-0.014,2.898-0.014,3.293c0,0.319,0.216,0.694,0.824,0.576   c4.766-1.589,8.2-6.085,8.2-11.385C24,5.669,18.627,0.296,12,0.296z" clip-rule="evenodd" fill="#6246ea" class="color000 svgShape"></path><path d="M4.545 17.526c-.026.06-.12.078-.206.037-.087-.039-.136-.121-.108-.18.026-.061.12-.078.207-.037C4.525 17.384 4.575 17.466 4.545 17.526L4.545 17.526zM5.031 18.068c-.057.053-.169.028-.245-.055-.079-.084-.093-.196-.035-.249.059-.053.167-.028.246.056C5.076 17.903 5.091 18.014 5.031 18.068L5.031 18.068zM5.504 18.759c-.074.051-.194.003-.268-.103-.074-.107-.074-.235.002-.286.074-.051.193-.005.268.101C5.579 18.579 5.579 18.707 5.504 18.759L5.504 18.759zM6.152 19.427c-.066.073-.206.053-.308-.046-.105-.097-.134-.234-.068-.307.067-.073.208-.052.311.046C6.191 19.217 6.222 19.355 6.152 19.427L6.152 19.427zM7.047 19.814c-.029.094-.164.137-.3.097C6.611 19.87 6.522 19.76 6.55 19.665c.028-.095.164-.139.301-.096C6.986 19.609 7.075 19.719 7.047 19.814L7.047 19.814zM8.029 19.886c.003.099-.112.181-.255.183-.143.003-.26-.077-.261-.174 0-.1.113-.181.256-.184C7.912 19.708 8.029 19.788 8.029 19.886L8.029 19.886zM8.943 19.731c.017.096-.082.196-.224.222-.139.026-.268-.034-.286-.13-.017-.099.084-.198.223-.224C8.797 19.574 8.925 19.632 8.943 19.731L8.943 19.731z" fill="#6246ea" class="color000 svgShape"></path></svg></g></svg>